<svg xmlns="http://www.w3.org/2000/svg" xmlns:xlink="http://www.w3.org/1999/xlink" width="55" height="44" viewBox="0 0 55 44"><defs><path id="idufa" d="M1007.54 942.28a3.16 3.16 0 0 1-2.7-4.8l7.24-11.95a3.16 3.16 0 0 1 5.24-.24l2.94 3.99 6.42-10.76a3.15 3.15 0 0 1 5.23-.29l5.57 7.35 14.88-24.35a3.15 3.15 0 1 1 5.39 3.3l-17.3 28.3a3.15 3.15 0 0 1-5.2.25l-5.55-7.3-6.46 10.8a3.15 3.15 0 0 1-5.25.26l-2.95-4-4.8 7.91a3.15 3.15 0 0 1-2.7 1.53z"/></defs><g><g transform="translate(-1004 -899)"><use xlink:href="#idufa"/></g></g></svg>