<svg xmlns="http://www.w3.org/2000/svg" xmlns:xlink="http://www.w3.org/1999/xlink" width="40" height="52" viewBox="0 0 40 52"><defs><path id="xgvpa" d="M719.46 903.84v42.44c0 2.5-1.7 4.11-4.3 4.11h-30.49c-2.6 0-4.3-1.61-4.3-4.11v-42.44c0-2.5 1.7-4.11 4.3-4.11h30.48c2.62 0 4.3 1.61 4.3 4.11zm-3.29 0c0-.46 0-.82-1.02-.82h-30.48c-1.01 0-1.01.36-1.01.82v42.44c0 .46 0 .82 1.01.82h30.48c1.02 0 1.02-.36 1.02-.82zm-2.11 2.92v33.12c0 .6-.5 1.1-1.1 1.1h-26.1c-.6 0-1.09-.5-1.09-1.1v-33.12c0-.6.5-1.1 1.1-1.1h26.1c.6 0 1.09.5 1.09 1.1zm-2.2 1.1h-23.9v30.92h23.9zm-10.6 34.88c.36.36.57.86.57 1.36a1.93 1.93 0 0 1-1.91 1.92c-.51 0-1-.2-1.36-.56a1.93 1.93 0 0 1 0-2.72c.71-.7 2-.7 2.7 0z"/></defs><g><g transform="translate(-680 -899)"><use xlink:href="#xgvpa"/></g></g></svg>