<svg xmlns="http://www.w3.org/2000/svg" xmlns:xlink="http://www.w3.org/1999/xlink" width="50" height="47" viewBox="0 0 50 47"><defs><path id="pimaa" d="M1046.25 2943.08c-.4 0-.82-.11-1.18-.35l-12.67-8.23-12.68 8.23a2.16 2.16 0 0 1-3.27-2.4l3.97-14.11-11.85-10.04a2.17 2.17 0 0 1 1.25-3.82l14.2-1.02 6.4-14.02a2.17 2.17 0 0 1 3.95 0l6.4 14.02 14.2 1.02a2.17 2.17 0 0 1 1.25 3.82l-11.85 10.04 3.97 14.1a2.17 2.17 0 0 1-2.09 2.76zm-13.85-13.33c.4 0 .82.11 1.17.35l9.04 5.86-2.8-9.9c-.22-.82.05-1.7.7-2.25l8.85-7.5-10.2-.74a2.16 2.16 0 0 1-1.8-1.26l-4.96-10.87-4.96 10.87a2.16 2.16 0 0 1-1.82 1.26l-10.2.74 8.87 7.5c.64.55.91 1.43.68 2.24l-2.79 9.91 9.04-5.86c.35-.24.76-.35 1.18-.35z"/></defs><g><g transform="translate(-1007 -2896)"><use fill="#777" xlink:href="#pimaa"/></g></g></svg>