<svg xmlns="http://www.w3.org/2000/svg" xmlns:xlink="http://www.w3.org/1999/xlink" width="52" height="48" viewBox="0 0 52 48"><defs><path id="16qka" d="M391.74 925.7c-10.69 11.91-20.13 20.35-20.22 20.44a2.3 2.3 0 0 1-3.06 0c-.1-.09-9.54-8.53-20.23-20.43-4.41-4.92-5.53-11.25-3-16.93 2.46-5.5 7.68-9.06 13.3-9.06 5.68 0 9.34 2.53 11.46 5.23 2.11-2.7 5.77-5.23 11.46-5.23 5.61 0 10.83 3.56 13.28 9.06 2.54 5.68 1.42 12.01-2.99 16.93zm-1.2-15.05c-1.7-3.79-5.35-6.33-9.1-6.33-7.64 0-9.16 5.86-9.22 6.1a2.3 2.3 0 0 1-4.47 0c-.16-.6-1.82-6.1-9.23-6.1-3.74 0-7.4 2.54-9.09 6.33-1.8 4.04-1 8.4 2.22 11.99 8 8.9 15.27 15.83 18.34 18.67a296.3 296.3 0 0 0 18.33-18.67c3.21-3.58 4.02-7.95 2.22-12zm-1.93 4.9a2.3 2.3 0 0 1-4.59.31c-.27-4.04-3.1-4.47-3.22-4.49a2.3 2.3 0 1 1 .62-4.55c2.3.31 6.78 2.54 7.19 8.74zm-3.45 4.12a2.31 2.31 0 0 1 0 3.25c-.43.42-1.03.67-1.63.67-.6 0-1.2-.25-1.63-.67a2.31 2.31 0 0 1 1.63-3.92c.6 0 1.2.24 1.63.67z"/></defs><g><g transform="translate(-344 -899)"><use xlink:href="#16qka"/></g></g></svg>