<svg xmlns="http://www.w3.org/2000/svg" xmlns:xlink="http://www.w3.org/1999/xlink" width="47" height="47" viewBox="0 0 47 47"><defs><path id="xefra" d="M389.4 2929.57c0 .2-.04.37-.1.55-.6 3.9-4.54 6.94-9.28 6.94h-.08c-5.18-.04-9.37-3.67-9.34-8.1.04-4.38 4.24-7.94 9.37-7.94h.1c1.96.01 3.78.55 5.28 1.44l.1-13.53-22.85 4.9-.16 21.05c-.04 4.38-4.24 7.95-9.37 7.95h-.09c-5.18-.04-9.37-3.68-9.33-8.1.03-4.38 4.23-7.95 9.37-7.95h.08c1.97.02 3.79.55 5.29 1.44l.18-24.15c.01-.96.69-1.79 1.63-1.99l26.95-5.76a2.05 2.05 0 0 1 2.48 2.02zm-31.06 5.28c.01-2.13-2.4-3.94-5.27-3.97h-.05c-2.9 0-5.26 1.74-5.27 3.88-.02 2.13 2.4 3.94 5.26 3.96h.06c2.89 0 5.25-1.74 5.27-3.87zm27.14-29.07l.03-4.92-22.85 4.89-.04 4.92zm-.18 23.3c.01-2.12-2.4-3.94-5.27-3.96h-.06c-2.89 0-5.25 1.74-5.27 3.88-.01 2.12 2.4 3.94 5.27 3.96h.05c2.9 0 5.26-1.74 5.28-3.88z"/></defs><g><g transform="translate(-343 -2896)"><use fill="#777" xlink:href="#xefra"/></g></g></svg>