<svg xmlns="http://www.w3.org/2000/svg" xmlns:xlink="http://www.w3.org/1999/xlink" width="20" height="31" viewBox="0 0 20 31"><defs><path id="jxr1a" d="M233.72 4588.82h14.93c1.03 0 1.87.84 1.87 1.87v26.12c0 1.03-.84 1.87-1.87 1.87h-14.93a1.87 1.87 0 0 1-1.86-1.87v-26.12c0-1.03.83-1.87 1.86-1.87zm2.8 2.34c0 .25.21.46.47.46h8.4a.47.47 0 0 0 0-.93h-8.4c-.26 0-.47.2-.47.47zm-2.8 23.79h14.93v-21.46h-14.93zm6.53 1.86a.93.93 0 1 0 1.87 0 .93.93 0 0 0-1.87 0z"/></defs><g><g transform="translate(-231 -4588)"><use fill="#ececec" xlink:href="#jxr1a"/></g></g></svg>