<svg xmlns="http://www.w3.org/2000/svg" xmlns:xlink="http://www.w3.org/1999/xlink" width="26" height="21" viewBox="0 0 26 21"><defs><path id="ugtfa" d="M547.74 4508.23h19.97a2.5 2.5 0 0 1 2.5 2.5v14.98a2.5 2.5 0 0 1-2.5 2.5h-19.97a2.5 2.5 0 0 1-2.5-2.5v-14.98a2.5 2.5 0 0 1 2.5-2.5zm11.65 9.99c0 .46.37.83.83.83h7.5a.83.83 0 0 0 0-1.66h-7.5a.83.83 0 0 0-.83.83zm0-3.33c0 .46.37.83.83.83h7.5a.83.83 0 1 0 0-1.66h-7.5a.83.83 0 0 0-.83.83zm0 6.66c0 .46.37.83.83.83h7.5a.83.83 0 0 0 0-1.66h-7.5a.83.83 0 0 0-.83.83zm-12.48-7.5v8.33c0 .46.37.83.83.83h8.32c.46 0 .83-.37.83-.83v-8.32a.83.83 0 0 0-.83-.84h-8.32a.83.83 0 0 0-.83.84z"/></defs><g><g transform="translate(-545 -4508)"><use fill="#ececec" xlink:href="#ugtfa"/></g></g></svg>