<svg xmlns="http://www.w3.org/2000/svg" xmlns:xlink="http://www.w3.org/1999/xlink" width="26" height="23" viewBox="0 0 26 23"><defs><path id="1qsea" d="M546.58 4548.27h22.05c.87 0 1.58.7 1.58 1.57v18.9c0 .87-.7 1.58-1.58 1.58h-22.05c-.87 0-1.58-.7-1.58-1.58v-18.9c0-.87.7-1.57 1.58-1.57zm.79 3.93v14.18c0 .87.7 1.58 1.57 1.58h17.33c.87 0 1.58-.7 1.58-1.58v-14.18c0-.87-.71-1.57-1.58-1.57h-17.33c-.87 0-1.57.7-1.57 1.57zm5.12 0a2.76 2.76 0 1 1 0 5.52 2.76 2.76 0 0 1 0-5.52zm-4.34 14.18l4.73-6.3 3.15 3.94h.79l5.51-11.03 4.73 13.4z"/></defs><g><g transform="translate(-545 -4548)"><use fill="#ececec" xlink:href="#1qsea"/></g></g></svg>