<svg xmlns="http://www.w3.org/2000/svg" xmlns:xlink="http://www.w3.org/1999/xlink" width="24" height="18" viewBox="0 0 24 18"><defs><path id="3rqna" d="M880.17 4520.33s3.16 1.45 4.48 1.45c0 0 2.5.68 4.16-1.48 0 0 .4-.6-.15-.88 0 0-5.4-1.59-5-2.52 0 0-.03-.53.66-.4 0 0 .78-.78.4-1.02 0 0-.6-.78-.12-.83l1.67.45s.31-.1.03-.32c-.29-.22-.8-.64-.7-.74 0 0 .2-.46.96-.13 0 0 .24-.05.02-.29 0 0-.55-.38-.24-.69 0 0 .88-.63 3.1 2.07 0 0 .4.55.46.02 0 0 1.6-6.86 4.22-7.32 0 0 .83.17 1-.1 0 0 .72-.28.96-.04 0 0 .24.36.53.14 0 0 1.03-.4.72.26 0 0-1.06.95-1.42.98-.36.02-.29.36.02.4 0 0 4.38.39 4.38 3.6 0 0 .25.75 1.06-.04 0 0 1.23-.78 1.54-.82 0 0 .34-.21.29.3 0 0-.88 1.52-1.8 1.95 0 0-.54.7.25.55 0 0 .76-.16 1.12-.37 0 0 .93-.46.5.36 0 0-1.96 1.27-2.39 1.27 0 0-.29.07-.29.34 0 0-.26 8.36-11.2 8.36 0 0-5.5.32-9.08-3.89 0 0-.7-.74-.14-.62z"/></defs><g><g transform="translate(-880 -4507)"><use fill="#ececec" xlink:href="#3rqna"/></g></g></svg>